<?xml version="1.0" encoding="UTF-8" standalone="no"?>
<!-- Created with Inkscape (http://www.inkscape.org/) -->

<svg
   width="35mm"
   height="7mm"
   viewBox="0 0 35 7"
   version="1.1"
   id="svg5"
   inkscape:version="1.2.2 (732a01da63, 2022-12-09, custom)"
   sodipodi:docname="compass_fin.svg"
   xmlns:inkscape="http://www.inkscape.org/namespaces/inkscape"
   xmlns:sodipodi="http://sodipodi.sourceforge.net/DTD/sodipodi-0.dtd"
   xmlns="http://www.w3.org/2000/svg"
   xmlns:svg="http://www.w3.org/2000/svg">
  <sodipodi:namedview
     id="namedview7"
     pagecolor="#ffffff"
     bordercolor="#000000"
     borderopacity="0.25"
     inkscape:showpageshadow="2"
     inkscape:pageopacity="0.0"
     inkscape:pagecheckerboard="0"
     inkscape:deskcolor="#d1d1d1"
     inkscape:document-units="mm"
     showgrid="true"
     inkscape:zoom="8"
     inkscape:cx="70.125"
     inkscape:cy="14.125"
     inkscape:window-width="1850"
     inkscape:window-height="1043"
     inkscape:window-x="0"
     inkscape:window-y="0"
     inkscape:window-maximized="1"
     inkscape:current-layer="layer1">
    <inkscape:grid
       type="xygrid"
       id="grid384"
       originx="0"
       originy="0" />
  </sodipodi:namedview>
  <defs
     id="defs2" />
  <g
     inkscape:label="Layer 1"
     inkscape:groupmode="layer"
     id="layer1">
    <g
       aria-label="compass"
       id="text169"
       style="font-size:8.51247px;font-family:FreeMono;-inkscape-font-specification:FreeMono;stroke-width:0.266014">
      <path
         d="M 3.7058135,0.71968582 V 0.60902371 q 0,-0.23834917 0.1787619,-0.23834917 0.1702494,0 0.1702494,0.23834917 V 1.3836585 q 0,0.2298367 -0.1702494,0.2298367 -0.1532245,0 -0.1787619,-0.2042993 Q 3.6802761,1.0686971 3.28019,0.8388604 2.8886164,0.60051124 2.3523308,0.60051124 q -0.7065351,0 -1.1491835,0.44264846 -0.43413601,0.434136 -0.43413601,1.1321585 0,0.6724852 0.44264841,1.1066212 0.4426485,0.4256235 1.1406711,0.4256235 0.9278592,0 1.5918319,-0.6128979 0.085125,-0.085125 0.1532245,-0.085125 0.0681,0 0.1106621,0.051075 0.051075,0.042562 0.051075,0.1106622 0,0.1702494 -0.3660362,0.417111 -0.6809977,0.4681859 -1.5577821,0.4681859 -0.8342221,0 -1.37902017,-0.5277732 -0.53628562,-0.5277732 -0.53628562,-1.3449703 0,-0.8427346 0.55331056,-1.38753265 0.55331053,-0.54479809 1.40455763,-0.54479809 0.7916597,0 1.3279453,0.46818586 z"
         style="font-family:'Tlwg Mono';-inkscape-font-specification:'Tlwg Mono'"
         id="path1675" />
      <path
         d="m 7.3661627,0.25149996 q 0.8171971,0 1.3790201,0.56182303 0.5618231,0.55331061 0.5618231,1.36199521 0,0.7831473 -0.5703355,1.3364579 -0.5703355,0.5447981 -1.3705077,0.5447981 -0.8086847,0 -1.3790202,-0.5533106 Q 5.4253194,2.949953 5.4253194,2.1497808 q 0,-0.7831472 0.5618231,-1.33645781 Q 6.557478,0.25149996 7.3661627,0.25149996 Z m 0,0.34901128 q -0.6639727,0 -1.1321586,0.45116096 -0.4596734,0.4511609 -0.4596734,1.0981086 0,0.6469478 0.4596734,1.1066212 0.4681859,0.4511609 1.1321586,0.4511609 0.6554602,0 1.123646,-0.4511609 0.4681859,-0.451161 0.4681859,-1.0810838 0,-0.6724851 -0.4596734,-1.123646 Q 8.0386478,0.60051124 7.3661627,0.60051124 Z"
         style="font-family:'Tlwg Mono';-inkscape-font-specification:'Tlwg Mono'"
         id="path1677" />
      <path
         d="m 10.873287,0.37067454 v 0.44264845 q 0.212812,-0.30644893 0.417111,-0.43413598 0.2043,-0.12768705 0.476699,-0.12768705 0.544798,0 0.825709,0.60438538 0.468186,-0.60438538 0.961909,-0.60438538 0.366037,0 0.629923,0.27239904 0.263887,0.27239905 0.263887,0.6469477 v 2.4005167 h 0.289424 q 0.229837,0 0.229837,0.1702494 0,0.1787618 -0.229837,0.1787618 h -0.629923 v -2.715478 q 0,-0.23834914 -0.170249,-0.41711102 -0.17025,-0.18727434 -0.391574,-0.18727434 -0.425624,0 -0.885297,0.69802256 v 2.2728296 h 0.289424 q 0.229837,0 0.229837,0.1702494 0,0.1787618 -0.229837,0.1787618 H 12.320407 V 1.230434 q 0,-0.2468616 -0.170249,-0.43413595 -0.161737,-0.19578681 -0.383061,-0.19578681 -0.425624,0 -0.89381,0.69802256 v 2.2728296 h 0.289424 q 0.229837,0 0.229837,0.1702494 0,0.1787618 -0.229837,0.1787618 h -0.927859 q -0.221324,0 -0.221324,-0.1787618 0,-0.1702494 0.229837,-0.1702494 h 0.289424 V 0.71968582 h -0.289424 q -0.229837,0 -0.229837,-0.17876188 0,-0.1702494 0.229837,-0.1702494 z"
         style="font-family:'Tlwg Mono';-inkscape-font-specification:'Tlwg Mono'"
         id="path1679" />
      <path
         d="m 17.768375,0.60051124 q -0.629923,0 -1.072572,0.45116096 -0.442648,0.4511609 -0.442648,1.0981086 0,0.6469478 0.442648,1.1066212 0.442649,0.4511609 1.072572,0.4511609 0.62141,0 1.064058,-0.4511609 0.451161,-0.451161 0.451161,-1.0810838 0,-0.6639726 -0.442648,-1.1151336 Q 18.40681,0.60051124 17.768375,0.60051124 Z m -1.51522,2.57076606 v 1.9834055 h 0.834222 q 0.229837,0 0.229837,0.1702494 0,0.1787619 -0.229837,0.1787619 H 15.44447 q -0.229836,0 -0.229836,-0.1787619 0,-0.1702494 0.229836,-0.1702494 h 0.459674 V 0.71968582 H 15.44447 q -0.229836,0 -0.229836,-0.17876188 0,-0.1702494 0.229836,-0.1702494 h 0.808685 V 1.1282844 q 0.612898,-0.87678444 1.532245,-0.87678444 0.774634,0 1.31092,0.54479809 0.536286,0.54479805 0.536286,1.33645785 0,0.8001722 -0.544798,1.3619952 -0.536286,0.5618231 -1.302408,0.5618231 -0.92786,0 -1.532245,-0.8852969 z"
         style="font-family:'Tlwg Mono';-inkscape-font-specification:'Tlwg Mono'"
         id="path1681" />
      <path
         d="M 23.701554,3.9203746 V 3.3500391 q -0.75761,0.7065351 -1.625882,0.7065351 -0.595873,0 -0.961909,-0.2979365 -0.366036,-0.3064489 -0.366036,-0.7916597 0,-0.5533106 0.493723,-0.8938094 0.502236,-0.3490113 1.302408,-0.3490113 0.502236,0 1.157696,0.1787619 V 1.2985338 q 0,-0.3149614 -0.289424,-0.50223575 -0.289424,-0.19578681 -0.75761,-0.19578681 -0.374549,0 -1.208771,0.2553741 -0.0681,0.0170249 -0.08512,0.0170249 -0.0681,0 -0.119175,-0.0510748 -0.04256,-0.0510748 -0.04256,-0.11917458 0,-0.12768705 0.144712,-0.17876188 0.791659,-0.27239904 1.336457,-0.27239904 0.595873,0 0.978935,0.29793645 0.391573,0.29793646 0.391573,0.74909739 v 2.2728296 h 0.459674 q 0.229836,0 0.229836,0.1702494 0,0.1787618 -0.229836,0.1787618 z m 0,-0.9533966 V 2.2008556 q -0.510748,-0.127687 -1.089596,-0.127687 -0.672485,0 -1.098109,0.2553741 -0.417111,0.2468616 -0.417111,0.6469477 0,0.3319864 0.263887,0.5362857 0.263886,0.1957868 0.706535,0.1957868 0.451161,0 0.825709,-0.1702494 0.383061,-0.1702494 0.808685,-0.5703355 z"
         style="font-family:'Tlwg Mono';-inkscape-font-specification:'Tlwg Mono'"
         id="path1683" />
      <path
         d="m 28.919686,0.64307359 v -0.0340499 q 0,-0.23834917 0.178761,-0.23834917 0.17025,0 0.17025,0.23834917 V 1.1963842 q 0,0.2298366 -0.17025,0.2298366 -0.153224,0 -0.178761,-0.1957868 -0.03405,-0.28942395 -0.340499,-0.45967336 -0.306449,-0.1702494 -0.79166,-0.1702494 -0.476698,0 -0.79166,0.18727434 -0.314961,0.17876188 -0.314961,0.45116092 0,0.2298367 0.272399,0.3830612 0.144712,0.093637 0.289424,0.127687 0.144712,0.025537 0.698022,0.085125 0.732073,0.085125 1.106622,0.3319864 0.425623,0.2894239 0.425623,0.7661223 0,0.4852108 -0.476698,0.8086847 -0.468186,0.3149614 -1.191746,0.3149614 -0.817197,0 -1.336458,-0.4596734 v 0.093637 q 0,0.2298367 -0.170249,0.2298367 -0.178762,0 -0.178762,-0.2298367 v -0.706535 q 0,-0.2298367 0.178762,-0.2298367 0.170249,0 0.170249,0.1872744 v 0.059587 q 0,0.289424 0.383061,0.5022358 0.383061,0.2042993 0.92786,0.2042993 0.561823,0 0.936371,-0.2213243 0.374549,-0.2213242 0.374549,-0.561823 0,-0.3319863 -0.374549,-0.5362856 Q 28.41745,2.2263931 27.796039,2.1582933 26.995867,2.0731686 26.689418,1.8858942 26.297845,1.6305201 26.297845,1.2134091 q 0,-0.41711105 0.408598,-0.6895101 0.417111,-0.27239904 1.047034,-0.27239904 0.72356,0 1.166209,0.39157363 z"
         style="font-family:'Tlwg Mono';-inkscape-font-specification:'Tlwg Mono'"
         id="path1685" />
      <path
         d="m 34.027153,0.64307359 v -0.0340499 q 0,-0.23834917 0.178762,-0.23834917 0.170249,0 0.170249,0.23834917 V 1.1963842 q 0,0.2298366 -0.170249,0.2298366 -0.153224,0 -0.178762,-0.1957868 -0.03405,-0.28942395 -0.340499,-0.45967336 -0.306449,-0.1702494 -0.791659,-0.1702494 -0.476699,0 -0.79166,0.18727434 -0.314961,0.17876188 -0.314961,0.45116092 0,0.2298367 0.272399,0.3830612 0.144712,0.093637 0.289424,0.127687 0.144712,0.025537 0.698022,0.085125 0.732073,0.085125 1.106621,0.3319864 0.425624,0.2894239 0.425624,0.7661223 0,0.4852108 -0.476699,0.8086847 -0.468185,0.3149614 -1.191745,0.3149614 -0.817198,0 -1.336458,-0.4596734 v 0.093637 q 0,0.2298367 -0.17025,0.2298367 -0.178762,0 -0.178762,-0.2298367 v -0.706535 q 0,-0.2298367 0.178762,-0.2298367 0.17025,0 0.17025,0.1872744 v 0.059587 q 0,0.289424 0.383061,0.5022358 0.383061,0.2042993 0.927859,0.2042993 0.561823,0 0.936372,-0.2213243 0.374549,-0.2213242 0.374549,-0.561823 0,-0.3319863 -0.374549,-0.5362856 Q 33.524917,2.2263931 32.903507,2.1582933 32.103335,2.0731686 31.796886,1.8858942 31.405312,1.6305201 31.405312,1.2134091 q 0,-0.41711105 0.408599,-0.6895101 0.417111,-0.27239904 1.047034,-0.27239904 0.72356,0 1.166208,0.39157363 z"
         style="font-family:'Tlwg Mono';-inkscape-font-specification:'Tlwg Mono'"
         id="path1687" />
    </g>
    <path
       id="rect10565-1-2"
       style="stroke:#000000;stroke-width:0.132283"
       d="m 15.970733,5.3836498 h 0.217718 v 1.1547816 h -0.217718 z" />
    <path
       id="rect10565-1-2-3"
       style="stroke:#000000;stroke-width:0.160361"
       transform="scale(-1,1)"
       d="m -17.139731,6.4782743 h 1.758665 c 0.05253,0 0.09482,0.04229 0.09482,0.09482 0,0.05253 -0.04229,0.09482 -0.09482,0.09482 h -1.758665 c -0.05253,0 -0.09482,-0.04229 -0.09482,-0.09482 0,-0.05253 0.04229,-0.09482 0.09482,-0.09482 z" />
    <path
       id="rect10565-1"
       style="stroke:#000000;stroke-width:0.178547"
       d="M 7.2892737,3.9868672 H 7.4607272 V 6.6583204 H 7.2892737 Z" />
  </g>
</svg>
